PathFileType  4	(X/Y/Z) /Users/kristensteudel/Documents/NMBL_Research/BertecForceProcessing/anc_files/
DataRate	CameraRate	NumFrames	NumMarkers	Units	OrigDataRate	OrigDataStartFrame	OrigNumFrames
  200.0		  200.0		    4		     46		 mm	  200.0	      239	    477
Frame#	Time	r_knee			r_shank_antsup			r_ankle			r_calc			r_5meta			r_toe			L_knee			L_shank_antsup			L_ankle			L_calc			L_5meta			L_toe			r_sh2			r_sh3			r_sh4			L_sh2			L_sh3			r_thigh1			r_thigh2			r_thigh3			r_thigh4			r_thigh5			L_thigh1			L_thigh2			L_thigh3			L_thigh4			r.ASIS			r.PSIS			L.ASIS			L.PSIS			C7			R_Shoulder			L_Shoulder			Sternum			R_humerus			R_elbow_med			R_elbow_lat			R_forearm			R_wrist_radius			R_wrist_ulna			L_humerus			L_elbow_med			L_elbow_lat			L_forearm			L_wrist_radius			L_wrist_ulna			
		X1	Y1	Z1	X2	Y2	Z2	X3	Y3	Z3	X4	Y4	Z4	X5	Y5	Z5	X6	Y6	Z6	X7	Y7	Z7	X8	Y8	Z8	X9	Y9	Z9	X10	Y10	Z10	X11	Y11	Z11	X12	Y12	Z12	X13	Y13	Z13	X14	Y14	Z14	X15	Y15	Z15	X16	Y16	Z16	X17	Y17	Z17	X18	Y18	Z18	X19	Y19	Z19	X20	Y20	Z20	X21	Y21	Z21	X22	Y22	Z22	X23	Y23	Z23	X24	Y24	Z24	X25	Y25	Z25	X26	Y26	Z26	X27	Y27	Z27	X28	Y28	Z28	X29	Y29	Z29	X30	Y30	Z30	X31	Y31	Z31	X32	Y32	Z32	X33	Y33	Z33	X34	Y34	Z34	X35	Y35	Z35	X36	Y36	Z36	X37	Y37	Z37	X38	Y38	Z38	X39	Y39	Z39	X40	Y40	Z40	X41	Y41	Z41	X42	Y42	Z42	X43	Y43	Z43	X44	Y44	Z44	X45	Y45	Z45	X46	Y46	Z46	

239	1.19500	922.592	510.880	-157.084	813.721	503.745	-166.630	557.158	694.946	-189.604	573.034	777.829	-246.046	427.223	640.993	-167.700	424.177	595.838	-233.091	924.856	516.062	-465.629	955.434	393.098	-458.625	880.941	97.880	-373.774	831.810	75.639	-317.965	1018.615	41.381	-421.679	1070.399	50.931	-363.777	707.935	558.628	-180.172	836.324	563.721	-127.021	743.328	626.834	-151.844	866.203	408.099	-465.286	859.102	288.870	-433.896	985.716	729.463	-140.686	997.709	615.210	-157.920	963.162	577.020	-133.198	881.736	707.849	-99.574	898.585	594.662	-129.369	940.349	754.282	-499.269	971.168	620.959	-468.126	822.993	730.185	-498.361	859.304	600.571	-464.316	926.013	999.981	-178.971	710.655	1046.288	-208.806	873.918	1022.997	-435.677	689.707	1053.074	-313.116	851.976	1540.480	-318.538	921.039	1505.104	-119.626	878.294	1475.236	-517.130	983.575	1414.296	-330.571	814.508	1314.511	-24.141	668.593	1242.936	-53.646	695.515	1272.612	28.990	794.770	1113.342	24.520	843.081	1012.559	13.791	800.159	998.141	36.097	750.471	1248.466	-590.738	618.176	1186.071	-529.983	654.054	1210.678	-616.734	773.156	1108.668	-591.616	876.126	1080.141	-530.933	833.219	1023.846	-559.432
240	1.20000	945.149	513.389	-160.105	836.588	503.744	-169.304	578.607	692.588	-190.423	591.452	777.053	-245.625	449.704	635.371	-166.467	448.317	590.756	-233.064	916.711	511.493	-462.916	942.936	389.103	-453.389	847.466	98.842	-370.128	796.429	74.242	-312.579	982.126	41.260	-421.128	1034.190	50.642	-362.793	730.289	557.782	-182.691	858.358	563.117	-128.094	764.397	625.612	-151.913	853.369	406.511	-465.549	838.915	289.552	-429.986	996.756	733.856	-142.547	1014.799	620.513	-160.392	983.180	580.917	-135.195	894.807	706.349	-99.616	917.364	594.374	-130.263	934.527	748.468	-497.025	960.453	614.423	-464.501	816.590	728.518	-496.714	848.246	596.861	-462.217	924.697	996.207	-180.376	710.526	1041.470	-208.615	870.742	1020.935	-436.416	687.300	1051.327	-312.002	851.097	1537.413	-321.070	916.587	1502.414	-119.600	882.537	1469.632	-519.011	984.139	1410.213	-328.903	805.768	1313.741	-26.401	658.649	1244.373	-57.107	683.605	1275.551	26.158	775.503	1112.007	28.706	819.256	1008.842	22.046	775.884	996.250	46.196	764.136	1235.880	-590.454	630.542	1170.437	-534.375	669.341	1194.634	-619.115	792.036	1098.803	-590.211	894.191	1077.633	-528.769	854.424	1018.475	-556.173
241	1.20500	968.172	517.599	-162.082	860.030	504.556	-172.279	598.646	689.128	-190.871	607.741	774.921	-245.040	472.897	626.958	-165.870	472.374	583.223	-231.765	907.139	507.610	-460.443	924.837	386.408	-450.162	813.344	99.727	-364.556	762.382	71.841	-307.210	947.501	41.563	-419.702	998.503	50.575	-360.670	752.635	556.762	-185.213	880.541	563.460	-129.948	784.855	624.600	-151.355	835.795	405.980	-463.788	817.432	289.651	-430.645	1007.608	739.357	-145.955	1032.012	627.696	-163.372	1003.377	586.337	-137.300	908.349	706.545	-100.008	936.822	595.928	-131.730	927.638	744.023	-495.554	949.769	609.291	-462.873	808.528	727.191	-495.909	837.442	594.754	-458.829	923.104	992.572	-181.778	707.254	1039.080	-208.957	867.328	1017.893	-438.005	684.806	1049.785	-311.532	850.544	1534.632	-323.761	911.871	1500.050	-119.994	887.778	1464.586	-520.697	984.581	1406.102	-326.992	796.741	1313.717	-28.533	648.167	1247.311	-59.037	671.450	1279.638	23.223	756.636	1112.757	32.065	795.846	1007.521	28.890	751.366	997.495	52.890	777.478	1226.562	-587.891	642.875	1156.330	-538.661	683.463	1181.512	-621.106	811.630	1091.122	-587.902	912.311	1077.429	-526.027	876.099	1015.498	-553.089
242	1.21000	991.338	524.387	-164.798	883.997	506.901	-174.714	616.883	684.286	-190.308	621.574	771.262	-243.963	494.952	616.080	-165.028	495.485	573.506	-231.612	894.469	504.862	-458.933	901.471	382.196	-448.589	779.570	101.267	-361.223	727.408	73.618	-304.909	911.741	41.465	-417.528	963.038	50.468	-358.521	774.958	555.986	-187.065	903.105	565.781	-132.444	805.235	624.046	-151.603	814.374	407.431	-459.275	795.477	290.365	-428.351	1018.822	746.874	-149.130	1049.168	636.829	-166.445	1023.199	593.766	-139.930	922.109	708.917	-100.661	956.442	600.134	-133.406	919.557	739.519	-496.253	939.198	604.682	-461.848	799.944	725.947	-494.836	826.799	593.111	-456.484	921.860	989.455	-183.006	705.361	1037.730	-209.727	862.958	1014.107	-441.221	682.767	1048.769	-311.001	850.378	1532.042	-326.248	907.415	1497.985	-120.724	893.910	1459.988	-522.021	984.975	1402.076	-324.996	787.314	1314.701	-30.033	637.063	1251.081	-61.562	659.019	1284.871	20.156	738.196	1115.516	34.726	773.176	1008.656	35.129	727.929	1001.148	58.515	789.940	1219.962	-587.264	655.261	1143.772	-541.999	697.507	1170.965	-622.722	831.505	1085.947	-584.944	930.071	1079.927	-522.511	898.779	1016.535	-549.982
